<svg width="50" height="50" viewBox="0 0 50 50" fill="none" xmlns="http://www.w3.org/2000/svg">
<path d="M12.1872 25.2713C12.1872 25.2713 21.1278 16.3719 21.1278 8.94219C21.1278 4.00278 17.125 0 12.1872 0C7.24937 0 3.24658 4.00278 3.24658 8.94219C3.24658 16.7927 12.1872 25.2713 12.1872 25.2713ZM7.52782 8.94219C7.52782 6.36648 9.61465 4.28124 12.1872 4.28124C14.7597 4.28124 16.8466 6.36648 16.8466 8.94219C16.8466 11.5147 14.7597 13.6 12.1872 13.6C9.61465 13.6 7.52782 11.5147 7.52782 8.94219Z" fill="#F784AD"/>
<path d="M45.233 12.0922L44.5068 12.3232L40.6227 12.6697L39.5278 14.4195L38.7352 14.1664L35.6453 11.3818L35.1944 9.93419L34.5979 8.38845L32.6535 6.64495L30.3657 6.1972L30.312 7.24616L32.5554 9.43582L33.6534 10.7284L32.4162 11.3739L31.4099 11.0765L29.9053 10.45L29.9576 9.23331L27.9799 8.42009L27.3233 11.2743L25.333 11.7267L25.5308 13.3199L28.1223 13.8199L28.5716 11.2743L30.7122 11.5923L31.7074 12.1745H33.3069L34.3986 14.3642L37.2986 17.3053L37.0866 18.4492L34.7482 18.1502L30.7091 20.1895L27.8011 23.6781L27.423 25.2223H26.3772L24.4328 24.3268L22.5437 25.2223L23.0136 27.2174L23.8363 26.2649L25.2808 26.2222L25.1795 28.0132L26.3772 28.3612L27.5733 29.706L29.5256 29.1571L31.7564 29.5083L34.3448 30.206L35.6406 30.3563L37.8302 32.845L42.0624 35.3353L39.3269 40.5658L36.4379 41.909L35.3415 44.8976L31.16 47.6901L30.7138 49.3023C41.3979 46.7282 49.3497 37.131 49.3497 25.6495C49.3529 20.6278 47.834 15.9637 45.233 12.0922Z" fill="#4263EB"/>
<path d="M27.8027 38.3714L26.0308 35.0837L27.6572 31.6884L26.0308 31.1964L24.2018 29.3627L20.1516 28.4562L18.8068 25.6416V27.3139H18.2135L15.6425 23.8284C14.3879 25.3299 13.4354 26.2886 13.3168 26.4057L12.214 27.5037L11.086 26.4326C10.7965 26.1542 5.61498 21.1879 3.05352 15.152C1.52518 18.3305 0.648682 21.8793 0.648682 25.6416C0.648682 39.0928 11.5511 50 25.0024 50C26.0371 50 27.0528 49.9098 28.0575 49.7864L27.8027 46.8373C27.8027 46.8373 28.9213 42.4548 28.9213 42.3077C28.9213 42.1574 27.8027 38.3714 27.8027 38.3714Z" fill="#4263EB"/>
<path d="M23.077 5.96139L24.8695 6.25725L29.2204 5.84906L30.4165 4.52957L32.1062 3.39993L34.4984 3.76065L35.3701 3.62933C32.2201 2.14688 28.7141 1.28937 25.0024 1.28937C23.2684 1.28937 21.585 1.49188 19.9539 1.8352C21.2211 3.21956 22.1324 4.93301 22.5201 6.83947L23.077 5.96139ZM26.0308 3.70686L28.5195 2.33832L30.1159 3.25912L27.8028 5.02003L25.5973 5.24311L24.6021 4.59918L26.0308 3.70686Z" fill="#4263EB"/>
</svg>
