<svg width="34" height="27" viewBox="0 0 34 27" fill="none" xmlns="http://www.w3.org/2000/svg">
<path d="M32.6366 0V1.93607C29.8971 2.93703 27.7503 4.5175 26.1962 6.67746C24.6421 8.81109 23.865 11.0369 23.865 13.3549C23.865 13.8554 23.944 14.2242 24.1021 14.4613C24.2075 14.6193 24.326 14.6983 24.4577 14.6983C24.5894 14.6983 24.787 14.6061 25.0504 14.4217C25.8933 13.8159 26.9601 13.513 28.2508 13.513C29.7523 13.513 31.0825 14.132 32.2415 15.37C33.4005 16.5817 33.98 18.0305 33.98 19.7163C33.98 21.4812 33.3083 23.0353 31.9649 24.3787C30.6479 25.7221 29.041 26.3938 27.1445 26.3938C24.9318 26.3938 23.0221 25.485 21.4153 23.6675C19.8085 21.8499 19.0051 19.4134 19.0051 16.3578C19.0051 12.8018 20.0982 9.6145 22.2846 6.796C24.4709 3.9775 27.9216 1.71217 32.6366 0ZM13.6315 0V1.93607C10.892 2.93703 8.74524 4.5175 7.19112 6.67746C5.63699 8.81109 4.85993 11.0369 4.85993 13.3549C4.85993 13.8554 4.93895 14.2242 5.097 14.4613C5.20236 14.6193 5.3209 14.6983 5.4526 14.6983C5.58431 14.6983 5.78187 14.6061 6.04528 14.4217C6.88819 13.8159 7.95501 13.513 9.24572 13.513C10.7472 13.513 12.0774 14.132 13.2364 15.37C14.3954 16.5817 14.9749 18.0305 14.9749 19.7163C14.9749 21.4812 14.3032 23.0353 12.9598 24.3787C11.6428 25.7221 10.036 26.3938 8.1394 26.3938C5.92674 26.3938 4.01702 25.485 2.41021 23.6675C0.803403 21.8499 0 19.4134 0 16.3578C0 12.8018 1.09316 9.6145 3.27947 6.796C5.46578 3.9775 8.91646 1.71217 13.6315 0Z" fill="#DDE2E5"/>
</svg>
