<svg width="34" height="27" viewBox="0 0 34 27" fill="none" xmlns="http://www.w3.org/2000/svg">
<path d="M1.3634 0V1.93617C4.10287 2.93718 6.24967 4.51773 7.80379 6.67781C9.35791 8.81155 10.135 11.0375 10.135 13.3556C10.135 13.8561 10.056 14.2249 9.89791 14.462C9.79254 14.6201 9.67401 14.6991 9.5423 14.6991C9.4106 14.6991 9.21304 14.6069 8.94963 14.4225C8.10671 13.8166 7.0399 13.5137 5.74919 13.5137C4.24774 13.5137 2.91752 14.1327 1.75851 15.3708C0.599503 16.5826 0.0200005 18.0314 0.0200005 19.7173C0.0200005 21.4823 0.691696 23.0365 2.03509 24.3799C3.35215 25.7234 4.95895 26.3951 6.85551 26.3951C9.06816 26.3951 10.9779 25.4863 12.5847 23.6687C14.1915 21.8511 14.9949 19.4144 14.9949 16.3587C14.9949 12.8024 13.9018 9.615 11.7154 6.79635C9.52913 3.97771 6.07845 1.71226 1.3634 0ZM20.3685 0V1.93617C23.108 2.93718 25.2548 4.51773 26.8089 6.67781C28.363 8.81155 29.1401 11.0375 29.1401 13.3556C29.1401 13.8561 29.061 14.2249 28.903 14.462C28.7976 14.6201 28.6791 14.6991 28.5474 14.6991C28.4157 14.6991 28.2181 14.6069 27.9547 14.4225C27.1118 13.8166 26.045 13.5137 24.7543 13.5137C23.2528 13.5137 21.9226 14.1327 20.7636 15.3708C19.6046 16.5826 19.0251 18.0314 19.0251 19.7173C19.0251 21.4823 19.6968 23.0365 21.0402 24.3799C22.3572 25.7234 23.964 26.3951 25.8606 26.3951C28.0733 26.3951 29.983 25.4863 31.5898 23.6687C33.1966 21.8511 34 19.4144 34 16.3587C34 12.8024 32.9068 9.615 30.7205 6.79635C28.5342 3.97771 25.0835 1.71226 20.3685 0Z" fill="#DDE2E5"/>
</svg>
