<svg width="50" height="23" viewBox="0 0 50 23" fill="none" xmlns="http://www.w3.org/2000/svg">
<path d="M13.3139 2.91168C13.7881 2.91168 14.1719 3.41438 14.1719 4.03554C14.1719 4.65671 13.7881 5.1594 13.3139 5.1594V7.40725H5.59192C6.06612 7.40725 6.44988 7.90994 6.44988 8.53111C6.44988 9.15228 6.06612 9.65497 5.59192 9.65497H13.3139V11.9028H9.02387C9.49808 11.9028 9.88184 12.4055 9.88184 13.0267C9.88184 13.6478 9.49808 14.1505 9.02387 14.1505H29.264V2.91141H13.3139V2.91168Z" fill="#F784AD" fill-opacity="0.4"/>
<path d="M38.3968 22.0179H17.669C17.2174 22.0179 16.8887 21.4568 17.0056 20.8853L19.8153 7.14998C19.9199 6.63861 20.2736 6.28305 20.6777 6.28305H41.4056C41.8571 6.28305 42.1858 6.84415 42.069 7.41559L39.2593 21.1509C39.1546 21.6623 38.8009 22.0179 38.3968 22.0179Z" fill="#4263EB"/>
<path d="M41.4055 6.28314H25.2038L23.2554 15.808C23.0606 16.7609 23.2117 17.7562 23.6701 18.5388C24.1286 19.3213 24.8233 19.7701 25.5763 19.7701H39.5417L42.0689 7.41568C42.1857 6.84424 41.8571 6.28314 41.4055 6.28314Z" fill="#4263EB"/>
<path d="M21.1388 9.36402L19.1934 18.8745C19.1009 19.3264 19.3608 19.77 19.718 19.77H37.1068C37.4952 19.77 37.8351 19.4283 37.9355 18.9369L39.8809 9.42642C39.9734 8.97457 39.7134 8.53098 39.3563 8.53098H21.9676C21.5792 8.53098 21.2393 8.87262 21.1388 9.36402Z" fill="#4263EB"/>
<path d="M37.9356 18.9371L39.881 9.42655C39.9734 8.97483 39.7135 8.5311 39.3564 8.5311H24.744L23.2554 15.8081C23.0606 16.761 23.2117 17.7563 23.6701 18.5389C24.1286 19.3214 24.8233 19.7702 25.5763 19.7702H37.1067C37.4952 19.7701 37.8351 19.4283 37.9356 18.9371Z" fill="#FDFEFF"/>
<path d="M21.3566 17.5222C21.2829 17.5222 21.2083 17.5101 21.1337 17.4838C20.6763 17.3235 20.4048 16.7067 20.5271 16.1074L21.4463 11.6118C21.5686 11.0125 22.0396 10.6559 22.497 10.8172C22.9545 10.9774 23.226 11.5943 23.1036 12.1936L22.1845 16.6892C22.0821 17.1907 21.7353 17.5222 21.3566 17.5222Z" fill="#FDFEFF"/>
<path d="M36.8006 17.5222C36.7268 17.5222 36.6523 17.5101 36.5777 17.4838C36.1202 17.3235 35.8488 16.7067 35.9711 16.1074L36.8903 11.6118C37.0126 11.0125 37.4852 10.6559 37.941 10.8172C38.3985 10.9774 38.6699 11.5943 38.5476 12.1936L37.6284 16.6892C37.5262 17.1907 37.1793 17.5222 36.8006 17.5222Z" fill="#FDFEFF"/>
<path d="M30.2584 6.28314L29.7812 8.61599C28.4768 8.90557 27.3817 9.97184 27.1029 11.332C26.5751 13.9168 28.3915 14.7871 29.2646 15.2064C30.4812 15.7892 30.4352 16.0153 30.3589 16.3885C30.2643 16.8505 29.5479 17.5223 28.6404 17.5223C28.1761 17.5223 27.8586 17.3346 27.7497 17.148C27.7195 17.0975 27.7087 17.058 27.7262 16.9701C27.8485 16.3698 27.5771 15.754 27.1196 15.5937C26.6647 15.4346 26.1912 15.7891 26.0689 16.3884C25.9139 17.1456 26.0279 17.9008 26.3881 18.5165C26.6631 18.986 27.0709 19.3198 27.5489 19.5292L27.0381 22.0177H28.8163L29.2906 19.6983C30.6172 19.425 31.7352 18.3452 32.0161 16.97C32.5448 14.3852 30.7275 13.5137 29.8544 13.0945C28.6378 12.5116 28.6839 12.2855 28.7601 11.9134C28.8548 11.4503 29.572 10.7786 30.4795 10.7786C30.9438 10.7786 31.2613 10.9662 31.3702 11.1529C31.4004 11.2044 31.4112 11.2428 31.3928 11.3296C31.2697 11.9289 31.5411 12.5458 31.9986 12.7071C32.4561 12.8706 32.9279 12.5139 33.0502 11.9136C33.2052 11.1563 33.092 10.4011 32.7318 9.78545C32.4489 9.30232 32.0254 8.96287 31.529 8.75554L32.0336 6.28314H30.2584Z" fill="#FDFEFF"/>
<path d="M29.7986 8.53098L29.7812 8.61597C28.4768 8.90555 27.3817 9.97182 27.1029 11.3319C26.5751 13.9168 28.3915 14.7871 29.2646 15.2063C30.4812 15.7892 30.4352 16.0153 30.3589 16.3885C30.2643 16.8505 29.5479 17.5222 28.6404 17.5222C28.1761 17.5222 27.8586 17.3346 27.7497 17.1479C27.7195 17.0975 27.7087 17.058 27.7262 16.9701C27.8486 16.3697 27.5771 15.7539 27.1196 15.5937C26.6647 15.4346 26.1912 15.7891 26.0689 16.3883C25.9139 17.1456 26.0279 17.9008 26.3881 18.5165C26.6631 18.986 27.0709 19.3198 27.5489 19.5292L27.4995 19.7698H29.276L29.2906 19.6983C30.6172 19.425 31.7353 18.3452 32.0162 16.97C32.5448 14.3851 30.7275 13.5137 29.8544 13.0945C28.6378 12.5116 28.6839 12.2855 28.7601 11.9134C28.8548 11.4503 29.572 10.7786 30.4795 10.7786C30.9438 10.7786 31.2613 10.9662 31.3702 11.1528C31.4004 11.2044 31.4112 11.2428 31.3928 11.3296C31.2697 11.9289 31.5411 12.5458 31.9986 12.7071C32.4561 12.8706 32.9279 12.5139 33.0502 11.9136C33.2052 11.1563 33.092 10.4011 32.7317 9.78543C32.4488 9.3023 32.0253 8.96286 31.5289 8.75552L31.5748 8.53098H29.7986Z" fill="#FDFEFF"/>
<path d="M46.3042 17.5225H25.5763C25.1247 17.5225 24.7961 16.9614 24.9129 16.39L27.7226 2.65462C27.8272 2.14325 28.1809 1.78769 28.5851 1.78769H49.3129C49.7645 1.78769 50.0931 2.34879 49.9763 2.92022L47.1666 16.6556C47.0621 17.1669 46.7083 17.5225 46.3042 17.5225Z" fill="#4263EB"/>
<path d="M29.0461 4.86826L27.1007 14.3788C27.0083 14.8306 27.2682 15.2742 27.6253 15.2742H45.0142C45.4025 15.2742 45.7424 14.9326 45.8429 14.4412L47.7883 4.93067C47.8807 4.47881 47.6209 4.03522 47.2637 4.03522H29.875C29.4866 4.03536 29.1467 4.377 29.0461 4.86826Z" fill="#4263EB"/>
<path d="M29.2639 13.0267C29.1902 13.0267 29.1157 13.0146 29.0411 12.9883C28.5836 12.8281 28.3122 12.2112 28.4345 11.6119L29.3536 7.11636C29.476 6.5171 29.9469 6.16043 30.4044 6.32175C30.8619 6.48197 31.1333 7.09886 31.011 7.69812L30.0918 12.1937C29.9895 12.6951 29.6426 13.0267 29.2639 13.0267Z" fill="#FDFEFF"/>
<path d="M44.7079 13.0267C44.6342 13.0267 44.5596 13.0146 44.4851 12.9883C44.0276 12.8281 43.7561 12.2112 43.8784 11.6119L44.7976 7.11636C44.9199 6.5171 45.3926 6.16043 45.8484 6.32175C46.3058 6.48197 46.5773 7.09886 46.455 7.69812L45.5358 12.1937C45.4336 12.6951 45.0866 13.0267 44.7079 13.0267Z" fill="#FDFEFF"/>
<path d="M26.0063 2.91158H11.4203C10.9461 2.91158 10.5624 2.4089 10.5624 1.78773C10.5624 1.16657 10.9461 0.663879 11.4203 0.663879H26.0063C26.4805 0.663879 26.8643 1.16657 26.8643 1.78773C26.8643 2.4089 26.4805 2.91158 26.0063 2.91158Z" fill="#4263EB"/>
<path d="M12.87 7.40735H0.857963C0.383759 7.40735 0 6.90466 0 6.28349C0 5.66233 0.383759 5.15964 0.857963 5.15964H12.87C13.3442 5.15964 13.7279 5.66233 13.7279 6.28349C13.728 6.90466 13.3443 7.40735 12.87 7.40735Z" fill="#4263EB"/>
<path d="M18.1956 7.40735H14.7636C14.2894 7.40735 13.9056 6.90466 13.9056 6.28349C13.9056 5.66233 14.2894 5.15964 14.7636 5.15964H18.1956C18.6698 5.15964 19.0535 5.66233 19.0535 6.28349C19.0536 6.90466 18.6699 7.40735 18.1956 7.40735Z" fill="#4263EB"/>
<path d="M18.1068 11.9029H6.09478C5.62057 11.9029 5.23682 11.4002 5.23682 10.7791C5.23682 10.1579 5.62057 9.65521 6.09478 9.65521H18.1068C18.581 9.65521 18.9647 10.1579 18.9647 10.7791C18.9647 11.4002 18.581 11.9029 18.1068 11.9029Z" fill="#4263EB"/>
<path d="M16.5683 16.3986H9.70428C9.23007 16.3986 8.84631 15.8959 8.84631 15.2747C8.84631 14.6536 9.23007 14.1509 9.70428 14.1509H16.5683C17.0425 14.1509 17.4263 14.6536 17.4263 15.2747C17.4263 15.8959 17.0425 16.3986 16.5683 16.3986Z" fill="#4263EB"/>
<path d="M38.1657 1.78769L37.6886 4.12054C36.3842 4.41011 35.2891 5.47638 35.0103 6.8365C34.4824 9.42131 36.2989 10.2917 37.172 10.7109C38.3886 11.2938 38.3425 11.5198 38.2663 11.893C38.1716 12.3551 37.4552 13.0268 36.5477 13.0268C36.0835 13.0268 35.766 12.8392 35.657 12.6525C35.6269 12.6021 35.616 12.5625 35.6336 12.4747C35.7559 11.8743 35.4845 11.2585 35.027 11.0983C34.572 10.9392 34.0986 11.2936 33.9762 11.8929C33.8212 12.6502 33.9352 13.4054 34.2954 14.021C34.5704 14.4905 34.9783 14.8243 35.4563 15.0337L34.9455 17.5222H36.7237L37.198 15.2029C38.5246 14.9296 39.6426 13.8499 39.9235 12.4745C40.4522 9.8897 38.6349 9.01823 37.7618 8.59902C36.5452 8.01615 36.5912 7.79008 36.6675 7.41799C36.7621 6.95484 37.4794 6.28311 38.3869 6.28311C38.8511 6.28311 39.1686 6.47075 39.2776 6.65741C39.3077 6.70893 39.3186 6.74737 39.3002 6.83416C39.177 7.43342 39.4485 8.05032 39.9059 8.21163C40.3634 8.37516 40.8352 8.01849 40.9575 7.41813C41.1125 6.66085 40.9994 5.90565 40.6391 5.28999C40.3562 4.80686 39.9327 4.46742 39.4363 4.26009L39.9409 1.78769H38.1657Z" fill="#FDFEFF"/>
</svg>
