<svg width="311" height="246" viewBox="0 0 311 246" fill="none" xmlns="http://www.w3.org/2000/svg">
<path d="M82.8124 25.8952C85.7619 25.8952 88.1491 31.6863 88.1491 38.8421C88.1491 45.9981 85.7619 51.7891 82.8124 51.7891V77.6845H34.7817C37.7312 77.6845 40.1182 83.4755 40.1182 90.6314C40.1182 97.7873 37.7312 103.578 34.7817 103.578H82.8124V129.473H56.1284C59.078 129.473 61.465 135.265 61.465 142.421C61.465 149.576 59.078 155.367 56.1284 155.367H182.022V25.8921H82.8124V25.8952Z" fill="#F784AD" fill-opacity="0.4"/>
<path d="M238.828 246H109.901C107.092 246 105.048 239.537 105.775 232.953L123.251 74.721C123.902 68.83 126.102 64.7339 128.615 64.7339H257.543C260.351 64.7339 262.396 71.1978 261.669 77.7808L244.193 236.013C243.542 241.904 241.342 246 238.828 246Z" fill="#4263EB"/>
<path d="M257.542 64.7339H156.768L144.649 174.461C143.437 185.438 144.377 196.904 147.228 205.92C150.08 214.934 154.401 220.105 159.085 220.105H245.949L261.668 77.7808C262.395 71.1978 260.351 64.7339 257.542 64.7339Z" fill="#4263EB"/>
<path d="M131.483 100.222L119.383 209.783C118.808 214.989 120.424 220.099 122.646 220.099H230.804C233.22 220.099 235.334 216.163 235.959 210.502L248.059 100.941C248.634 95.7352 247.017 90.625 244.796 90.625H136.638C134.223 90.625 132.108 94.5607 131.483 100.222Z" fill="#4263EB"/>
<path d="M235.959 210.509L248.06 100.947C248.634 95.7427 247.018 90.6309 244.797 90.6309H153.908L144.649 174.462C143.437 185.44 144.377 196.906 147.228 205.921C150.08 214.936 154.401 220.106 159.085 220.106H230.804C233.22 220.105 235.334 216.167 235.959 210.509Z" fill="#FDFEFF"/>
<path d="M132.838 194.207C132.38 194.207 131.916 194.067 131.452 193.764C128.607 191.918 126.918 184.812 127.679 177.908L133.396 126.118C134.157 119.214 137.086 115.106 139.931 116.964C142.777 118.81 144.466 125.917 143.704 132.821L137.988 184.61C137.351 190.388 135.194 194.207 132.838 194.207Z" fill="#FDFEFF"/>
<path d="M228.9 194.207C228.441 194.207 227.977 194.067 227.513 193.764C224.668 191.918 222.979 184.812 223.74 177.908L229.458 126.118C230.218 119.214 233.158 115.106 235.993 116.964C238.839 118.81 240.527 125.917 239.766 132.821L234.049 184.61C233.413 190.388 231.255 194.207 228.9 194.207Z" fill="#FDFEFF"/>
<path d="M188.207 64.7339L185.239 91.6085C177.126 94.9445 170.314 107.228 168.58 122.897C165.297 152.674 176.595 162.7 182.026 167.53C189.593 174.244 189.307 176.849 188.832 181.148C188.244 186.471 183.788 194.21 178.143 194.21C175.255 194.21 173.28 192.048 172.603 189.898C172.415 189.316 172.348 188.861 172.457 187.848C173.218 180.933 171.529 173.839 168.684 171.992C165.854 170.159 162.909 174.243 162.148 181.147C161.184 189.87 161.893 198.57 164.134 205.663C165.844 211.072 168.381 214.917 171.354 217.329L168.177 245.997H179.237L182.187 219.277C190.439 216.129 197.393 203.69 199.14 187.847C202.429 158.07 191.125 148.03 185.694 143.201C178.127 136.486 178.414 133.882 178.888 129.595C179.477 124.26 183.938 116.522 189.582 116.522C192.47 116.522 194.445 118.683 195.123 120.834C195.31 121.427 195.378 121.87 195.263 122.869C194.497 129.773 196.186 136.88 199.031 138.738C201.877 140.622 204.811 136.513 205.572 129.597C206.536 120.873 205.832 112.173 203.592 105.081C201.832 99.5151 199.198 95.6046 196.11 93.2161L199.249 64.7339H188.207Z" fill="#FDFEFF"/>
<path d="M185.347 90.625L185.239 91.6041C177.126 94.9401 170.314 107.224 168.58 122.892C165.297 152.67 176.595 162.696 182.026 167.525C189.593 174.24 189.307 176.845 188.832 181.144C188.244 186.467 183.788 194.205 178.143 194.205C175.255 194.205 173.28 192.043 172.603 189.893C172.415 189.312 172.348 188.857 172.457 187.844C173.218 180.928 171.529 173.834 168.684 171.988C165.854 170.155 162.909 174.239 162.148 181.142C161.184 189.866 161.893 198.566 164.134 205.659C165.844 211.068 168.381 214.913 171.354 217.325L171.047 220.097H182.097L182.187 219.273C190.439 216.125 197.393 203.686 199.141 187.843C202.429 158.065 191.125 148.026 185.694 143.197C178.127 136.482 178.414 133.877 178.888 129.591C179.477 124.256 183.938 116.518 189.582 116.518C192.47 116.518 194.445 118.679 195.123 120.829C195.31 121.423 195.378 121.865 195.263 122.865C194.497 129.769 196.186 136.876 199.031 138.734C201.877 140.618 204.811 136.509 205.572 129.593C206.536 120.869 205.832 112.169 203.591 105.076C201.831 99.5107 199.197 95.6003 196.11 93.2117L196.395 90.625H185.347Z" fill="#FDFEFF"/>
<path d="M288.012 194.21H159.085C156.276 194.21 154.232 187.746 154.958 181.164L172.435 22.9309C173.085 17.0399 175.285 12.9438 177.799 12.9438H306.726C309.535 12.9438 311.579 19.4078 310.852 25.9907L293.376 184.223C292.726 190.113 290.526 194.21 288.012 194.21Z" fill="#4263EB"/>
<path d="M180.667 48.4331L168.566 157.995C167.992 163.2 169.608 168.31 171.829 168.31H279.988C282.403 168.31 284.518 164.375 285.143 158.714L297.243 49.1521C297.818 43.9466 296.202 38.8364 293.98 38.8364H185.822C183.407 38.838 181.292 42.7738 180.667 48.4331Z" fill="#4263EB"/>
<path d="M182.021 142.422C181.563 142.422 181.1 142.283 180.636 141.98C177.79 140.134 176.102 133.028 176.863 126.124L182.579 74.3347C183.341 67.4312 186.27 63.3223 189.115 65.1808C191.961 67.0265 193.649 74.1331 192.888 81.0366L187.171 132.826C186.535 138.602 184.377 142.422 182.021 142.422Z" fill="#FDFEFF"/>
<path d="M278.083 142.422C277.625 142.422 277.161 142.283 276.697 141.98C273.852 140.134 272.163 133.028 272.924 126.124L278.641 74.3347C279.402 67.4312 282.342 63.3223 285.177 65.1808C288.022 67.0265 289.711 74.1331 288.95 81.0366L283.233 132.826C282.597 138.602 280.439 142.422 278.083 142.422Z" fill="#FDFEFF"/>
<path d="M161.759 25.8937H71.0342C68.0847 25.8937 65.6981 20.1028 65.6981 12.9468C65.6981 5.79104 68.0847 0 71.0342 0H161.759C164.709 0 167.096 5.79104 167.096 12.9468C167.096 20.1028 164.709 25.8937 161.759 25.8937Z" fill="#4263EB"/>
<path d="M80.0514 77.6844H5.33653C2.38698 77.6844 0 71.8933 0 64.7374C0 57.5816 2.38698 51.7905 5.33653 51.7905H80.0514C83.0009 51.7905 85.3875 57.5816 85.3875 64.7374C85.3881 71.8933 83.0015 77.6844 80.0514 77.6844Z" fill="#4263EB"/>
<path d="M113.177 77.6844H91.8295C88.88 77.6844 86.4928 71.8933 86.4928 64.7374C86.4928 57.5816 88.88 51.7905 91.8295 51.7905H113.177C116.126 51.7905 118.513 57.5816 118.513 64.7374C118.513 71.8933 116.127 77.6844 113.177 77.6844Z" fill="#4263EB"/>
<path d="M112.624 129.473H37.9095C34.9599 129.473 32.573 123.682 32.573 116.527C32.573 109.371 34.9599 103.58 37.9095 103.58H112.624C115.574 103.58 117.96 109.371 117.96 116.527C117.96 123.682 115.574 129.473 112.624 129.473Z" fill="#4263EB"/>
<path d="M103.055 181.262H60.3606C57.411 181.262 55.024 175.471 55.024 168.315C55.024 161.16 57.411 155.369 60.3606 155.369H103.055C106.004 155.369 108.392 161.16 108.392 168.315C108.392 175.471 106.004 181.262 103.055 181.262Z" fill="#4263EB"/>
<path d="M237.391 12.9438L234.423 39.8184C226.31 43.1543 219.498 55.4378 217.764 71.1065C214.48 100.884 225.779 110.911 231.21 115.74C238.777 122.455 238.49 125.058 238.016 129.358C237.427 134.681 232.971 142.419 227.327 142.419C224.439 142.419 222.464 140.258 221.786 138.107C221.599 137.527 221.531 137.07 221.641 136.059C222.402 129.142 220.714 122.048 217.868 120.203C215.038 118.37 212.093 122.453 211.332 129.357C210.368 138.081 211.077 146.781 213.317 153.872C215.028 159.281 217.565 163.127 220.538 165.539L217.361 194.207H228.421L231.372 167.488C239.623 164.34 246.577 151.901 248.324 136.057C251.613 106.28 240.309 96.2402 234.878 91.4109C227.311 84.6962 227.597 82.0918 228.072 77.8053C228.66 72.4698 233.122 64.7314 238.766 64.7314C241.654 64.7314 243.629 66.893 244.307 69.0434C244.494 69.6369 244.562 70.0797 244.447 71.0795C243.681 77.9831 245.37 85.0898 248.215 86.9481C251.06 88.832 253.995 84.7231 254.756 77.8069C255.72 69.083 255.016 60.383 252.775 53.2906C251.015 47.7249 248.381 43.8145 245.294 41.4261L248.432 12.9438H237.391Z" fill="#FDFEFF"/>
</svg>
