<svg width="70" height="62" viewBox="0 0 70 62" fill="none" xmlns="http://www.w3.org/2000/svg">
<path d="M52.3709 17.5235C50.2791 16.685 49.6748 16.1779 49.6748 15.2623C49.6748 14.5295 50.2298 13.6734 51.7946 13.6734C53.1786 13.6734 54.2401 14.2192 54.2495 14.2239C54.3612 14.2835 54.4865 14.3152 54.6106 14.3152C54.9134 14.3152 55.1814 14.1319 55.2924 13.8482L55.6726 12.8764C55.805 12.5222 55.6042 12.2136 55.3481 12.1029C54.496 11.732 52.8306 11.445 52.8136 11.442C52.7868 11.4373 52.6935 11.4173 52.6935 11.3082L52.6881 9.89836C52.6881 9.47378 52.3336 9.12811 51.8983 9.12811H51.2163C50.7814 9.12811 50.4271 9.47358 50.4271 9.89856L50.4289 11.3808C50.4289 11.4945 50.3058 11.5438 50.2608 11.5543C48.1586 12.055 46.8448 13.5949 46.8448 15.5373C46.8448 17.9587 48.8464 19.0529 51.0076 19.8743C52.7353 20.5526 53.44 21.2403 53.44 22.2491C53.44 23.3469 52.4419 24.1136 51.0119 24.1136C49.7908 24.1136 48.1383 23.3396 48.1219 23.3317C48.0161 23.2816 47.9041 23.2563 47.7889 23.2563C47.4744 23.2563 47.2005 23.4465 47.091 23.7411L46.728 24.724C46.599 25.091 46.7976 25.3889 47.0519 25.5215C48.0668 26.05 50.0307 26.3598 50.1181 26.3734C50.1416 26.3768 50.2612 26.4188 50.2612 26.5281V28.0039C50.2612 28.4284 50.6157 28.7741 51.0512 28.7741H51.7559C52.1915 28.7741 52.5461 28.4286 52.5461 28.0039V26.4507C52.5461 26.3055 52.6532 26.2927 52.6753 26.2874C54.9148 25.7843 56.2943 24.1457 56.2943 22.0883C56.2937 19.9751 55.1202 18.6096 52.3709 17.5235Z" fill="#2DBE60"/>
<path d="M51.4904 0.440948C41.2673 0.440948 32.9805 8.72839 32.9805 18.9509C32.9805 29.1736 41.2673 37.4613 51.4904 37.4613C61.7132 37.4613 70.0002 29.1736 70.0002 18.9509C70.0002 8.72839 61.7132 0.440948 51.4904 0.440948ZM51.4904 33.1714C43.6365 33.1714 37.2701 26.8045 37.2701 18.9511C37.2701 11.0977 43.6365 4.73096 51.4904 4.73096C59.344 4.73096 65.7102 11.0977 65.7102 18.9511C65.7102 26.8045 59.344 33.1714 51.4904 33.1714Z" fill="#2DBE60"/>
<path d="M66.2389 46.431C62.3029 48.6034 56.8893 50.6121 51.4904 51.4589C46.6871 52.2121 37.6505 50.3954 37.6505 48.2498C37.6505 47.4368 45.5759 50.2532 50.37 48.9741C54.0462 47.9933 53.5244 44.5545 51.5248 44.1009C49.5368 43.6497 37.89 39.3829 32.9152 39.2357C30.5717 39.1665 24.786 40.0508 21.9863 40.5067C21.0273 40.6628 20.4259 40.6456 20.3659 41.5634C20.0873 45.829 19.5383 54.5519 19.239 59.1082C19.2327 59.2045 19.3664 60.4992 20.4348 59.5881C21.6042 58.5909 23.2443 57.4857 24.7613 57.8298C27.1413 58.3698 47.7313 62.1419 50.5714 61.4817C54.6344 60.5373 66.1358 53.7213 68.3409 51.6027C71.7589 48.3183 69.1019 44.8508 66.2389 46.431Z" fill="#2DBE60"/>
<path d="M14.684 40.3404L3.89746 39.8089C3.06467 39.7679 2.21412 40.3955 2.00716 41.203L0.0458351 59.01C-0.160932 59.8177 0.351645 60.5051 1.18483 60.5373L13.139 60.5361C13.9724 60.5683 14.7059 59.9144 14.7699 59.083L16.0827 41.9265C16.1462 41.0953 15.5168 40.3815 14.684 40.3404ZM8.33386 58.177C6.68664 58.177 5.35153 56.8417 5.35153 55.1947C5.35153 53.5475 6.68683 52.2123 8.33386 52.2123C9.9809 52.2123 11.3162 53.5477 11.3162 55.1947C11.3162 56.8419 9.98109 58.177 8.33386 58.177Z" fill="#2DBE60"/>
</svg>
