<svg width="1001" height="80" viewBox="0 0 1001 80" fill="none" xmlns="http://www.w3.org/2000/svg">
<mask id="path-1-inside-1" fill="white">
<path fill-rule="evenodd" clip-rule="evenodd" d="M307.309 35H79.6905C77.23 15.2684 60.3981 0 40 0C19.6019 0 2.76996 15.2684 0.309469 35H0V40V45H0.309469C2.76996 64.7316 19.6019 80 40 80C60.3981 80 77.23 64.7316 79.6905 45H307.309C309.77 64.7316 326.602 80 347 80C367.398 80 384.23 64.7316 386.691 45H614.309C616.77 64.7316 633.602 80 654 80C674.398 80 691.23 64.7316 693.691 45H921.309C923.77 64.7316 940.602 80 961 80C983.091 80 1001 62.0914 1001 40C1001 17.9086 983.091 0 961 0C940.602 0 923.77 15.2684 921.309 35H693.691C691.23 15.2684 674.398 0 654 0C633.602 0 616.77 15.2684 614.309 35H386.691C384.23 15.2684 367.398 0 347 0C326.602 0 309.77 15.2684 307.309 35Z"/>
</mask>
<path fill-rule="evenodd" clip-rule="evenodd" d="M307.309 35H79.6905C77.23 15.2684 60.3981 0 40 0C19.6019 0 2.76996 15.2684 0.309469 35H0V40V45H0.309469C2.76996 64.7316 19.6019 80 40 80C60.3981 80 77.23 64.7316 79.6905 45H307.309C309.77 64.7316 326.602 80 347 80C367.398 80 384.23 64.7316 386.691 45H614.309C616.77 64.7316 633.602 80 654 80C674.398 80 691.23 64.7316 693.691 45H921.309C923.77 64.7316 940.602 80 961 80C983.091 80 1001 62.0914 1001 40C1001 17.9086 983.091 0 961 0C940.602 0 923.77 15.2684 921.309 35H693.691C691.23 15.2684 674.398 0 654 0C633.602 0 616.77 15.2684 614.309 35H386.691C384.23 15.2684 367.398 0 347 0C326.602 0 309.77 15.2684 307.309 35Z" fill="#DDE2E5"/>
<path d="M79.6905 35L78.6982 35.1237L78.8075 36H79.6905V35ZM307.309 35V36H308.193L308.302 35.1237L307.309 35ZM0.309469 35V36H1.19252L1.30178 35.1237L0.309469 35ZM0 35V34H-1V35H0ZM0 45H-1V46H0V45ZM0.309469 45L1.30178 44.8763L1.19252 44H0.309469V45ZM79.6905 45V44H78.8075L78.6982 44.8763L79.6905 45ZM307.309 45L308.302 44.8763L308.193 44H307.309V45ZM386.691 45V44H385.807L385.698 44.8763L386.691 45ZM614.309 45L615.302 44.8763L615.193 44H614.309V45ZM693.691 45V44H692.807L692.698 44.8763L693.691 45ZM921.309 45L922.302 44.8763L922.193 44H921.309V45ZM921.309 35V36H922.193L922.302 35.1237L921.309 35ZM693.691 35L692.698 35.1237L692.807 36H693.691V35ZM614.309 35V36H615.193L615.302 35.1237L614.309 35ZM386.691 35L385.698 35.1237L385.807 36H386.691V35ZM79.6905 36H307.309V34H79.6905V36ZM40 1C59.8874 1 76.2994 15.8865 78.6982 35.1237L80.6828 34.8763C78.1607 14.6504 60.9088 -1 40 -1V1ZM1.30178 35.1237C3.70063 15.8865 20.1126 1 40 1V-1C19.0912 -1 1.83928 14.6504 -0.682846 34.8763L1.30178 35.1237ZM0 36H0.309469V34H0V36ZM1 40V35H-1V40H1ZM1 45V40H-1V45H1ZM0.309469 44H0V46H0.309469V44ZM40 79C20.1126 79 3.70063 64.1135 1.30178 44.8763L-0.682846 45.1237C1.83928 65.3496 19.0912 81 40 81V79ZM78.6982 44.8763C76.2994 64.1135 59.8874 79 40 79V81C60.9088 81 78.1607 65.3496 80.6828 45.1237L78.6982 44.8763ZM307.309 44H79.6905V46H307.309V44ZM347 79C327.113 79 310.701 64.1135 308.302 44.8763L306.317 45.1237C308.839 65.3496 326.091 81 347 81V79ZM385.698 44.8763C383.299 64.1135 366.887 79 347 79V81C367.909 81 385.161 65.3496 387.683 45.1237L385.698 44.8763ZM614.309 44H386.691V46H614.309V44ZM654 79C634.113 79 617.701 64.1135 615.302 44.8763L613.317 45.1237C615.839 65.3496 633.091 81 654 81V79ZM692.698 44.8763C690.299 64.1135 673.887 79 654 79V81C674.909 81 692.161 65.3496 694.683 45.1237L692.698 44.8763ZM921.309 44H693.691V46H921.309V44ZM961 79C941.113 79 924.701 64.1135 922.302 44.8763L920.317 45.1237C922.839 65.3496 940.091 81 961 81V79ZM1000 40C1000 61.5391 982.539 79 961 79V81C983.644 81 1002 62.6437 1002 40H1000ZM961 1C982.539 1 1000 18.4609 1000 40H1002C1002 17.3563 983.644 -1 961 -1V1ZM922.302 35.1237C924.701 15.8865 941.113 1 961 1V-1C940.091 -1 922.839 14.6504 920.317 34.8763L922.302 35.1237ZM693.691 36H921.309V34H693.691V36ZM654 1C673.887 1 690.299 15.8865 692.698 35.1237L694.683 34.8763C692.161 14.6504 674.909 -1 654 -1V1ZM615.302 35.1237C617.701 15.8865 634.113 1 654 1V-1C633.091 -1 615.839 14.6504 613.317 34.8763L615.302 35.1237ZM386.691 36H614.309V34H386.691V36ZM347 1C366.887 1 383.299 15.8865 385.698 35.1237L387.683 34.8763C385.161 14.6504 367.909 -1 347 -1V1ZM308.302 35.1237C310.701 15.8865 327.113 1 347 1V-1C326.091 -1 308.839 14.6504 306.317 34.8763L308.302 35.1237Z" fill="#9099A1" mask="url(#path-1-inside-1)"/>
<circle cx="40" cy="40" r="29.5" fill="white" stroke="#9099A1"/>
<circle cx="347" cy="40" r="29.5" fill="white" stroke="#9099A1"/>
<circle cx="654" cy="40" r="29.5" fill="white" stroke="#9099A1"/>
<circle cx="961" cy="40" r="29.5" fill="white" stroke="#9099A1"/>
<path d="M36.3353 30.8V28.31H41.9753V50H39.2153V30.8H36.3353Z" fill="#495057"/>
<path d="M339.902 47.81C342.442 45.77 344.432 44.1 345.872 42.8C347.312 41.48 348.522 40.11 349.502 38.69C350.502 37.25 351.002 35.84 351.002 34.46C351.002 33.16 350.682 32.14 350.042 31.4C349.422 30.64 348.412 30.26 347.012 30.26C345.652 30.26 344.592 30.69 343.832 31.55C343.092 32.39 342.692 33.52 342.632 34.94H339.992C340.072 32.7 340.752 30.97 342.032 29.75C343.312 28.53 344.962 27.92 346.982 27.92C349.042 27.92 350.672 28.49 351.872 29.63C353.092 30.77 353.702 32.34 353.702 34.34C353.702 36 353.202 37.62 352.202 39.2C351.222 40.76 350.102 42.14 348.842 43.34C347.582 44.52 345.972 45.9 344.012 47.48H354.332V49.76H339.902V47.81Z" fill="#495057"/>
<path d="M646.967 33.77C647.107 31.93 647.817 30.49 649.097 29.45C650.377 28.41 652.037 27.89 654.077 27.89C655.437 27.89 656.607 28.14 657.587 28.64C658.587 29.12 659.337 29.78 659.837 30.62C660.357 31.46 660.617 32.41 660.617 33.47C660.617 34.71 660.257 35.78 659.537 36.68C658.837 37.58 657.917 38.16 656.777 38.42V38.57C658.077 38.89 659.107 39.52 659.867 40.46C660.627 41.4 661.007 42.63 661.007 44.15C661.007 45.29 660.747 46.32 660.227 47.24C659.707 48.14 658.927 48.85 657.887 49.37C656.847 49.89 655.597 50.15 654.137 50.15C652.017 50.15 650.277 49.6 648.917 48.5C647.557 47.38 646.797 45.8 646.637 43.76H649.277C649.417 44.96 649.907 45.94 650.747 46.7C651.587 47.46 652.707 47.84 654.107 47.84C655.507 47.84 656.567 47.48 657.287 46.76C658.027 46.02 658.397 45.07 658.397 43.91C658.397 42.41 657.897 41.33 656.897 40.67C655.897 40.01 654.387 39.68 652.367 39.68H651.677V37.4H652.397C654.237 37.38 655.627 37.08 656.567 36.5C657.507 35.9 657.977 34.98 657.977 33.74C657.977 32.68 657.627 31.83 656.927 31.19C656.247 30.55 655.267 30.23 653.987 30.23C652.747 30.23 651.747 30.55 650.987 31.19C650.227 31.83 649.777 32.69 649.637 33.77H646.967Z" fill="#495057"/>
<path d="M953.266 45.17V43.1L963.796 28.52H967.066V42.8H970.066V45.17H967.066V50H964.366V45.17H953.266ZM964.486 31.37L956.416 42.8H964.486V31.37Z" fill="#495057"/>
</svg>
