<svg width="280" height="80" viewBox="0 0 280 80" fill="none" xmlns="http://www.w3.org/2000/svg">
<rect x="9" y="35" width="263" height="10" fill="#DDE2E5"/>
<circle cx="40" cy="40" r="40" fill="#DDE2E5"/>
<circle cx="240" cy="40" r="40" fill="#DDE2E5"/>
<circle cx="40" cy="40" r="29.5" fill="white" stroke="#9099A1"/>
<circle cx="240" cy="40" r="29.5" fill="white" stroke="#9099A1"/>
<path d="M36.3353 30.8V28.31H41.9753V50H39.2153V30.8H36.3353Z" fill="#495057"/>
<path d="M232.902 47.81C235.442 45.77 237.432 44.1 238.872 42.8C240.312 41.48 241.522 40.11 242.502 38.69C243.502 37.25 244.002 35.84 244.002 34.46C244.002 33.16 243.682 32.14 243.042 31.4C242.422 30.64 241.412 30.26 240.012 30.26C238.652 30.26 237.592 30.69 236.832 31.55C236.092 32.39 235.692 33.52 235.632 34.94H232.992C233.072 32.7 233.752 30.97 235.032 29.75C236.312 28.53 237.962 27.92 239.982 27.92C242.042 27.92 243.672 28.49 244.872 29.63C246.092 30.77 246.702 32.34 246.702 34.34C246.702 36 246.202 37.62 245.202 39.2C244.222 40.76 243.102 42.14 241.842 43.34C240.582 44.52 238.972 45.9 237.012 47.48H247.332V49.76H232.902V47.81Z" fill="#495057"/>
</svg>
