<svg width="34" height="36" viewBox="0 0 34 36" fill="none" xmlns="http://www.w3.org/2000/svg">
<path d="M13.8812 9.24995C15.2146 9.24995 16.4479 9.56662 17.5812 10.2C18.7146 10.8 19.6146 11.6666 20.2812 12.8C20.9479 13.9333 21.2812 15.25 21.2812 16.75C21.2812 18.9166 20.5646 20.6 19.1312 21.8C17.7312 22.9666 15.9146 23.55 13.6812 23.55C12.5146 23.55 11.6979 23.3833 11.2312 23.05C10.7646 22.6833 10.5312 22.0833 10.5312 21.25C10.5312 20.45 10.6979 19.9 11.0312 19.6C11.3646 19.2666 11.8312 19.0666 12.4312 19C14.3979 18.8 15.3812 17.9833 15.3812 16.55C15.3812 15.95 15.2312 15.5 14.9312 15.2C14.6646 14.8666 14.2812 14.7 13.7812 14.7C12.8812 14.7 12.0479 15.2166 11.2812 16.25C10.5146 17.25 9.88124 18.4333 9.38124 19.8C8.88124 21.1333 8.56458 22.2666 8.43124 23.2C8.19791 24.6666 8.08124 27.2666 8.08124 31C8.08124 32.8 7.81458 34.0333 7.28124 34.7C6.78124 35.3333 5.88124 35.65 4.58124 35.65C3.38124 35.65 2.46457 35.4166 1.83124 34.95C1.23124 34.4833 0.914574 33.7666 0.881241 32.8V24.7C0.881241 22.5666 0.831241 20.7666 0.73124 19.3C0.63124 17.8 0.464574 15.8833 0.23124 13.55L0.0312402 11.5C-0.0354265 10.6666 0.23124 9.98329 0.831241 9.44995C1.46457 8.91662 2.33124 8.64995 3.43124 8.64995C5.29791 8.64995 6.29791 9.48329 6.43124 11.15C6.49791 11.95 6.56458 13.0833 6.63124 14.55C7.29791 12.9833 8.23124 11.7166 9.43124 10.75C10.6646 9.74995 12.1479 9.24995 13.8812 9.24995Z" fill="#F784AD"/>
<path d="M28.5555 9.09995C27.2221 9.09995 26.1221 8.68329 25.2555 7.84995C24.4221 6.98329 24.0055 5.89995 24.0055 4.59995C24.0055 3.29995 24.4221 2.24995 25.2555 1.44995C26.1221 0.616618 27.2388 0.199951 28.6055 0.199951C29.9388 0.199951 31.0221 0.616618 31.8555 1.44995C32.6888 2.24995 33.1055 3.28329 33.1055 4.54995C33.1055 5.84995 32.6721 6.93329 31.8055 7.79995C30.9721 8.66662 29.8888 9.09995 28.5555 9.09995ZM27.8555 34.9C26.7888 34.9 25.9055 34.6333 25.2055 34.1C24.5055 33.5666 24.1721 32.85 24.2055 31.95L24.6055 13.5C24.6388 12.6 24.9888 11.9 25.6555 11.4C26.3221 10.8666 27.1888 10.6 28.2555 10.6C29.3555 10.6 30.2555 10.8666 30.9555 11.4C31.6555 11.9333 31.9888 12.6666 31.9555 13.6L31.5555 32C31.5221 32.9 31.1555 33.6166 30.4555 34.15C29.7888 34.65 28.9221 34.9 27.8555 34.9Z" fill="#F784AD"/>
</svg>
