<svg width="50" height="50" viewBox="0 0 50 50" fill="none" xmlns="http://www.w3.org/2000/svg">
<g clip-path="url(#clip0)">
<path d="M14.7031 14.1161C14.5747 14.1161 14.4447 14.0828 14.3262 14.0126L5.09406 8.54805C4.74162 8.33946 4.62502 7.88467 4.83361 7.53223C5.04231 7.17989 5.49699 7.06329 5.84943 7.27178L15.0816 12.7363C15.434 12.9449 15.5506 13.3997 15.342 13.7522C15.2035 13.986 14.9566 14.1161 14.7031 14.1161Z" fill="#F784AD"/>
<path d="M14.7039 14.1161H4.67205C4.26248 14.1161 3.93054 13.7841 3.93054 13.3746C3.93054 12.965 4.26257 12.6331 4.67205 12.6331H14.704C15.1135 12.6331 15.4455 12.965 15.4455 13.3746C15.4455 13.7841 15.1135 14.1161 14.7039 14.1161Z" fill="#F784AD"/>
<path d="M33.4661 32.7962L20.3087 13.3745L25.3684 6.06608C26.4278 4.53571 25.3325 2.44528 23.4713 2.44528H11.5413C9.68008 2.44528 8.58477 4.53571 9.64424 6.06608L14.7039 13.3745L1.54648 32.7962C0.538672 34.2838 0 36.0393 0 37.8362C0 42.7991 4.02324 46.8223 8.98604 46.8223H26.0266C30.9895 46.8223 35.0126 42.7991 35.0126 37.8362C35.0126 36.0393 34.4739 34.2838 33.4661 32.7962Z" fill="#4263EB"/>
<path d="M33.4661 32.7962L20.3087 13.3745L25.3684 6.06608C26.4279 4.53571 25.3325 2.44528 23.4713 2.44528H21.3088C22.9986 2.44528 23.993 4.53571 23.0312 6.06608L18.4376 13.3745L30.3828 32.7962C31.2978 34.2838 31.7868 36.0394 31.7868 37.8362C31.7868 42.7991 28.1343 46.8223 23.6287 46.8223H26.0267C30.9896 46.8223 35.0127 42.7991 35.0127 37.8362C35.0126 36.0393 34.474 34.2838 33.4661 32.7962Z" fill="#212429"/>
<path d="M20.911 14.116H13.8912C13.4816 14.116 13.1497 13.784 13.1497 13.3745C13.1497 12.9649 13.4817 12.633 13.8912 12.633H20.911C21.3206 12.633 21.6525 12.9649 21.6525 13.3745C21.6525 13.784 21.3206 14.116 20.911 14.116Z" fill="#F784AD"/>
<path d="M38.387 24.3288C31.9836 24.3288 26.774 29.5384 26.774 35.9418C26.774 42.3451 31.9836 47.5547 38.387 47.5547C44.7905 47.5547 50 42.3451 50 35.9418C50 29.5384 44.7905 24.3288 38.387 24.3288Z" fill="#FCAB29"/>
<path d="M44.739 26.2249C46.961 28.3416 48.3477 31.3275 48.3477 34.6313C48.3477 41.0346 43.1382 46.2442 36.7347 46.2442C34.3919 46.2442 32.2093 45.5461 30.3827 44.348C32.4674 46.3339 35.2873 47.5546 38.387 47.5546C44.7904 47.5547 50 42.3451 50 35.9418C50 31.8813 47.9047 28.3015 44.739 26.2249Z" fill="#DD8D19"/>
<path d="M38.3867 43.7705C42.7106 43.7705 46.2158 40.2653 46.2158 35.9414C46.2158 31.6175 42.7106 28.1123 38.3867 28.1123C34.0628 28.1123 30.5576 31.6175 30.5576 35.9414C30.5576 40.2653 34.0628 43.7705 38.3867 43.7705Z" fill="#F2DF33"/>
<path d="M39.3591 35.2094H37.415C36.8744 35.2094 36.4347 34.7696 36.4347 34.2291C36.4347 33.6886 36.8744 33.2488 37.415 33.2488H40.2657C40.6702 33.2488 40.9982 32.921 40.9982 32.5164C40.9982 32.1118 40.6702 31.784 40.2657 31.784H39.1195V31.0196C39.1195 30.615 38.7915 30.2872 38.387 30.2872C37.9825 30.2872 37.6546 30.615 37.6546 31.0196V31.784H37.415C36.0667 31.784 34.9698 32.8809 34.9698 34.2291C34.9698 35.5773 36.0667 36.6742 37.415 36.6742H39.3591C39.8996 36.6742 40.3394 37.114 40.3394 37.6544C40.3394 38.1949 39.8996 38.6347 39.3591 38.6347H36.5083C36.1038 38.6347 35.7759 38.9625 35.7759 39.3671C35.7759 39.7717 36.1038 40.0995 36.5083 40.0995H37.6547V40.8639C37.6547 41.2685 37.9826 41.5963 38.3871 41.5963C38.7916 41.5963 39.1196 41.2685 39.1196 40.8639V40.0995H39.3592C40.7074 40.0995 41.8043 39.0026 41.8043 37.6544C41.8043 36.3061 40.7073 35.2094 39.3591 35.2094Z" fill="#FCAB29"/>
<path d="M36.0028 14.0881L34.2405 12.6782C34.2386 12.6767 34.2364 12.6758 34.2345 12.6742C34.2038 12.65 34.1713 12.628 34.1368 12.609C34.1361 12.6087 34.1355 12.6082 34.1348 12.6078C34.1017 12.5897 34.0669 12.5747 34.0309 12.5617C34.026 12.56 34.0212 12.558 34.0163 12.5564C33.9824 12.545 33.9475 12.5361 33.9117 12.5298C33.9053 12.5287 33.8991 12.5278 33.8928 12.527C33.8569 12.5215 33.8205 12.5179 33.7831 12.5179C33.7457 12.5179 33.7092 12.5216 33.6733 12.527C33.667 12.5279 33.6607 12.5287 33.6545 12.5298C33.6186 12.5361 33.5837 12.545 33.5499 12.5564C33.5449 12.558 33.5401 12.56 33.5352 12.5617C33.4993 12.5746 33.4644 12.5897 33.4313 12.6078C33.4306 12.6082 33.43 12.6087 33.4294 12.609C33.3949 12.628 33.3624 12.6501 33.3316 12.6742C33.3297 12.6758 33.3275 12.6767 33.3256 12.6782L31.5633 14.0881C31.2475 14.3408 31.1963 14.8017 31.449 15.1176C31.7016 15.4333 32.1625 15.4847 32.4785 15.2319L33.0508 14.7741V21.489C33.0508 21.8936 33.3788 22.2214 33.7833 22.2214C34.1878 22.2214 34.5157 21.8936 34.5157 21.489V14.7741L35.0881 15.2319C35.2231 15.34 35.3846 15.3925 35.5451 15.3925C35.7599 15.3925 35.9728 15.2984 36.1174 15.1177C36.37 14.8016 36.3187 14.3408 36.0028 14.0881Z" fill="#1B3D66"/>
<path d="M45.2108 10.1601L43.4485 8.75023C43.4466 8.74866 43.4444 8.74778 43.4425 8.74622C43.4118 8.722 43.3793 8.70003 43.3448 8.68099C43.3441 8.68069 43.3435 8.68021 43.3428 8.67982C43.3097 8.66165 43.2749 8.64671 43.2389 8.63372C43.234 8.63196 43.2292 8.63001 43.2243 8.62835C43.1904 8.61702 43.1555 8.60814 43.1197 8.60179C43.1133 8.60071 43.1071 8.59984 43.1008 8.59896C43.0649 8.59349 43.0285 8.58987 42.9911 8.58987C42.9537 8.58987 42.9173 8.59359 42.8813 8.59896C42.875 8.59993 42.8687 8.60071 42.8625 8.60179C42.8266 8.60814 42.7917 8.61702 42.7579 8.62835C42.7529 8.63001 42.7481 8.63196 42.7432 8.63372C42.7073 8.64661 42.6724 8.66165 42.6393 8.67982C42.6386 8.68021 42.6381 8.68069 42.6374 8.68099C42.6029 8.70003 42.5704 8.7221 42.5396 8.74622C42.5377 8.74778 42.5355 8.74866 42.5337 8.75023L40.7714 10.1601C40.4555 10.4128 40.4043 10.8737 40.657 11.1896C40.9096 11.5053 41.3705 11.5566 41.6865 11.3039L42.2589 10.8461V17.561C42.2589 17.9656 42.5868 18.2934 42.9913 18.2934C43.3958 18.2934 43.7237 17.9656 43.7237 17.561V10.8461L44.2961 11.3039C44.4311 11.4119 44.5926 11.4645 44.7531 11.4645C44.9679 11.4645 45.1808 11.3704 45.3255 11.1897C45.5779 10.8737 45.5266 10.4128 45.2108 10.1601Z" fill="#1B3D66"/>
</g>
<defs>
<clipPath id="clip0">
<rect width="50" height="50" fill="white"/>
</clipPath>
</defs>
</svg>
