<svg width="180" height="180" viewBox="0 0 180 180" fill="none" xmlns="http://www.w3.org/2000/svg">
<path d="M52.9306 46.5703C52.4684 46.5703 52.0004 46.4374 51.5738 46.1573L18.3381 24.3521C17.0694 23.5198 16.6496 21.7051 17.4005 20.2987C18.1518 18.8928 19.7887 18.4275 21.0575 19.2594L54.2932 41.0645C55.5618 41.8969 55.9816 43.7116 55.2306 45.1182C54.732 46.0511 53.8432 46.5703 52.9306 46.5703Z" fill="#F784AD"/>
<path d="M52.9336 46.5705H16.819C15.3446 46.5705 14.1496 45.2457 14.1496 43.6117C14.1496 41.9772 15.3449 40.6528 16.819 40.6528H52.9339C54.4081 40.6528 55.6033 41.9772 55.6033 43.6117C55.6033 45.2457 54.4081 46.5705 52.9336 46.5705Z" fill="#F784AD"/>
<path d="M120.478 121.109L73.1112 43.6107L91.326 14.448C95.1399 8.34142 91.1968 0 84.4965 0H41.5486C34.8482 0 30.9051 8.34142 34.7192 14.448L52.9339 43.6107L5.56732 121.109C1.93921 127.045 0 134.05 0 141.22C0 161.023 14.4836 177.077 32.3497 177.077H93.6955C111.562 177.077 126.045 161.023 126.045 141.22C126.045 134.05 124.106 127.045 120.478 121.109Z" fill="#4263EB"/>
<path d="M120.477 121.109L73.1109 43.6107L91.3258 14.448C95.14 8.34142 91.1965 0 84.4962 0H76.7113C82.7945 0 86.3744 8.34142 82.9119 14.448L66.375 43.6107L109.378 121.109C112.672 127.045 114.432 134.05 114.432 141.22C114.432 161.023 101.283 177.077 85.0629 177.077H93.6957C111.562 177.077 126.045 161.023 126.045 141.22C126.045 134.05 124.106 127.045 120.477 121.109Z" fill="#212429"/>
<path d="M75.2793 46.5694H50.0081C48.5336 46.5694 47.3387 45.2446 47.3387 43.6106C47.3387 41.9762 48.5339 40.6519 50.0081 40.6519H75.2793C76.7539 40.6519 77.9487 41.9762 77.9487 43.6106C77.9487 45.2446 76.7539 46.5694 75.2793 46.5694Z" fill="#F784AD"/>
<path d="M138.192 87.3208C115.14 87.3208 96.3858 108.109 96.3858 133.66C96.3858 159.211 115.14 179.999 138.192 179.999C161.245 179.999 179.999 159.211 179.999 133.66C179.999 108.109 161.245 87.3208 138.192 87.3208Z" fill="#FCAB29"/>
<path d="M161.06 94.8887C169.06 103.335 174.052 115.25 174.052 128.433C174.052 153.984 155.298 174.771 132.245 174.771C123.811 174.771 115.954 171.986 109.378 167.205C116.883 175.129 127.034 180 138.193 180C161.245 180.001 180 159.213 180 133.662C180 117.459 172.457 103.175 161.06 94.8887Z" fill="#DD8D19"/>
<path d="M138.192 164.9C153.758 164.9 166.377 150.913 166.377 133.659C166.377 116.406 153.758 102.419 138.192 102.419C122.626 102.419 110.007 116.406 110.007 133.659C110.007 150.913 122.626 164.9 138.192 164.9Z" fill="#F2DF33"/>
<path d="M141.692 130.738H134.693C132.747 130.738 131.164 128.983 131.164 126.826C131.164 124.669 132.747 122.914 134.693 122.914H144.956C146.412 122.914 147.593 121.606 147.593 119.992C147.593 118.377 146.412 117.069 144.956 117.069H140.83V114.019C140.83 112.405 139.649 111.097 138.193 111.097C136.736 111.097 135.556 112.405 135.556 114.019V117.069H134.693C129.84 117.069 125.891 121.446 125.891 126.826C125.891 132.206 129.84 136.583 134.693 136.583H141.692C143.638 136.583 145.221 138.337 145.221 140.494C145.221 142.651 143.638 144.406 141.692 144.406H131.429C129.973 144.406 128.793 145.714 128.793 147.328C128.793 148.942 129.973 150.25 131.429 150.25H135.556V153.301C135.556 154.915 136.737 156.223 138.193 156.223C139.649 156.223 140.83 154.915 140.83 153.301V150.25H141.693C146.546 150.25 150.495 145.874 150.495 140.494C150.495 135.114 146.546 130.738 141.692 130.738Z" fill="#FCAB29"/>
<path d="M129.61 46.4589L123.266 40.833C123.259 40.827 123.251 40.8234 123.244 40.817C123.134 40.7205 123.017 40.6327 122.893 40.5569C122.89 40.5557 122.888 40.5537 122.885 40.5521C122.766 40.4799 122.641 40.42 122.511 40.3681C122.494 40.3613 122.476 40.3534 122.459 40.347C122.337 40.3015 122.211 40.266 122.082 40.2408C122.059 40.2365 122.037 40.2329 122.014 40.2297C121.885 40.2077 121.754 40.1934 121.619 40.1934C121.485 40.1934 121.353 40.2081 121.224 40.2297C121.201 40.2333 121.179 40.2365 121.156 40.2408C121.027 40.266 120.901 40.3015 120.78 40.347C120.762 40.3534 120.744 40.3613 120.727 40.3681C120.598 40.4196 120.472 40.4799 120.353 40.5521C120.35 40.5537 120.348 40.5557 120.346 40.5569C120.222 40.6327 120.105 40.7209 119.994 40.817C119.987 40.8234 119.979 40.827 119.972 40.833L113.628 46.4589C112.491 47.4673 112.307 49.3064 113.217 50.5669C114.126 51.8266 115.785 52.0317 116.923 51.023L118.983 49.1962V75.9906C118.983 77.6051 120.164 78.9131 121.62 78.9131C123.076 78.9131 124.257 77.6051 124.257 75.9906V49.1962L126.317 51.023C126.803 51.4544 127.385 51.6638 127.962 51.6638C128.736 51.6638 129.502 51.2884 130.023 50.5673C130.932 49.306 130.747 47.4673 129.61 46.4589Z" fill="#1B3D66"/>
<path d="M162.759 30.7842L156.415 25.1584C156.408 25.1522 156.4 25.1487 156.393 25.1424C156.283 25.0458 156.166 24.9581 156.042 24.8821C156.039 24.881 156.037 24.879 156.034 24.8775C155.915 24.805 155.79 24.7454 155.66 24.6935C155.643 24.6865 155.625 24.6787 155.608 24.6721C155.486 24.6269 155.36 24.5915 155.231 24.5661C155.208 24.5618 155.186 24.5583 155.163 24.5548C155.034 24.533 154.903 24.5186 154.768 24.5186C154.634 24.5186 154.503 24.5334 154.373 24.5548C154.35 24.5587 154.328 24.5618 154.305 24.5661C154.176 24.5915 154.05 24.6269 153.929 24.6721C153.911 24.6787 153.893 24.6865 153.876 24.6935C153.747 24.745 153.621 24.805 153.502 24.8775C153.499 24.879 153.497 24.881 153.495 24.8821C153.371 24.9581 153.254 25.0462 153.143 25.1424C153.136 25.1487 153.128 25.1522 153.122 25.1584L146.777 30.7842C145.64 31.7926 145.456 33.6317 146.365 34.8922C147.275 36.152 148.934 36.3567 150.072 35.3483L152.132 33.5216V60.316C152.132 61.9304 153.313 63.2385 154.769 63.2385C156.225 63.2385 157.406 61.9304 157.406 60.316V33.5216L159.466 35.3483C159.952 35.7793 160.534 35.9892 161.111 35.9892C161.885 35.9892 162.651 35.6137 163.172 34.8926C164.081 33.6317 163.896 31.7926 162.759 30.7842Z" fill="#1B3D66"/>
</svg>
