<svg width="280" height="80" viewBox="0 0 280 80" fill="none" xmlns="http://www.w3.org/2000/svg">
<rect x="4" y="35" width="273" height="10" fill="#DDE2E5"/>
<circle cx="40" cy="40" r="40" fill="#DDE2E5"/>
<circle cx="40" cy="40" r="29.5" fill="white" stroke="#9099A1"/>
<circle cx="240" cy="40" r="40" fill="#DDE2E5"/>
<circle cx="240" cy="40" r="29.5" fill="white" stroke="#9099A1"/>
<path d="M32.967 33.77C33.107 31.93 33.817 30.49 35.097 29.45C36.377 28.41 38.037 27.89 40.077 27.89C41.437 27.89 42.607 28.14 43.587 28.64C44.587 29.12 45.337 29.78 45.837 30.62C46.357 31.46 46.617 32.41 46.617 33.47C46.617 34.71 46.257 35.78 45.537 36.68C44.837 37.58 43.917 38.16 42.777 38.42V38.57C44.077 38.89 45.107 39.52 45.867 40.46C46.627 41.4 47.007 42.63 47.007 44.15C47.007 45.29 46.747 46.32 46.227 47.24C45.707 48.14 44.927 48.85 43.887 49.37C42.847 49.89 41.597 50.15 40.137 50.15C38.017 50.15 36.277 49.6 34.917 48.5C33.557 47.38 32.797 45.8 32.637 43.76H35.277C35.417 44.96 35.907 45.94 36.747 46.7C37.587 47.46 38.707 47.84 40.107 47.84C41.507 47.84 42.567 47.48 43.287 46.76C44.027 46.02 44.397 45.07 44.397 43.91C44.397 42.41 43.897 41.33 42.897 40.67C41.897 40.01 40.387 39.68 38.367 39.68H37.677V37.4H38.397C40.237 37.38 41.627 37.08 42.567 36.5C43.507 35.9 43.977 34.98 43.977 33.74C43.977 32.68 43.627 31.83 42.927 31.19C42.247 30.55 41.267 30.23 39.987 30.23C38.747 30.23 37.747 30.55 36.987 31.19C36.227 31.83 35.777 32.69 35.637 33.77H32.967Z" fill="#495057"/>
<path d="M232.266 45.17V43.1L242.796 28.52H246.066V42.8H249.066V45.17H246.066V50H243.366V45.17H232.266ZM243.486 31.37L235.416 42.8H243.486V31.37Z" fill="#495057"/>
</svg>
