<svg width="78" height="70" viewBox="0 0 78 70" fill="none" xmlns="http://www.w3.org/2000/svg">
<path d="M58.3563 19.9833C56.0255 19.049 55.3522 18.484 55.3522 17.4637C55.3522 16.6472 55.9706 15.6933 57.7142 15.6933C59.2564 15.6933 60.4391 16.3013 60.4497 16.3066C60.5741 16.373 60.7137 16.4084 60.852 16.4084C61.1895 16.4084 61.488 16.2042 61.6118 15.888L62.0354 14.8051C62.183 14.4105 61.9592 14.0666 61.6738 13.9433C60.7243 13.53 58.8686 13.2101 58.8497 13.2068C58.8198 13.2015 58.7158 13.1793 58.7158 13.0578L58.7098 11.4868C58.7098 11.0136 58.3148 10.6285 57.8298 10.6285H57.0698C56.5853 10.6285 56.1904 11.0134 56.1904 11.487L56.1924 13.1387C56.1924 13.2653 56.0552 13.3203 56.0051 13.3319C53.6626 13.8899 52.1987 15.6058 52.1987 17.7701C52.1987 20.4683 54.429 21.6875 56.8372 22.6028C58.7624 23.3586 59.5477 24.125 59.5477 25.249C59.5477 26.4722 58.4355 27.3266 56.842 27.3266C55.4814 27.3266 53.64 26.4641 53.6218 26.4553C53.5039 26.3995 53.379 26.3713 53.2507 26.3713C52.9002 26.3713 52.5951 26.5833 52.4731 26.9115L52.0686 28.0068C51.9248 28.4157 52.1462 28.7476 52.4295 28.8954C53.5604 29.4843 55.7488 29.8295 55.8461 29.8447C55.8723 29.8484 56.0055 29.8952 56.0055 30.017V31.6615C56.0055 32.1346 56.4006 32.5197 56.8858 32.5197H57.6711C58.1565 32.5197 58.5516 32.1348 58.5516 31.6615V29.9308C58.5516 29.769 58.6709 29.7547 58.6956 29.7488C61.191 29.1882 62.7282 27.3624 62.7282 25.0699C62.7275 22.7151 61.4199 21.1936 58.3563 19.9833Z" fill="#2DBE60"/>
<path d="M57.3754 0.948486C45.9839 0.948486 36.75 10.1831 36.75 21.5739C36.75 32.9649 45.9839 42.1997 57.3754 42.1997C68.7664 42.1997 78.0006 32.9649 78.0006 21.5739C78.0006 10.1831 68.7664 0.948486 57.3754 0.948486ZM57.3754 37.4196C48.6238 37.4196 41.5299 30.325 41.5299 21.5741C41.5299 12.8232 48.6238 5.72879 57.3754 5.72879C66.1265 5.72879 73.2203 12.8232 73.2203 21.5741C73.2203 30.325 66.1265 37.4196 57.3754 37.4196Z" fill="#2DBE60"/>
<path d="M73.8091 52.1945C69.4232 54.6152 63.3909 56.8534 57.3751 57.797C52.0227 58.6364 41.9534 56.6121 41.9534 54.2212C41.9534 53.3153 50.7846 56.4535 56.1266 55.0283C60.2229 53.9354 59.6415 50.1036 57.4133 49.5981C55.1982 49.0953 42.2203 44.341 36.6769 44.177C34.0656 44.0998 27.6187 45.0852 24.4991 45.5932C23.4304 45.7671 22.7603 45.748 22.6935 46.7707C22.3831 51.5237 21.7712 61.2435 21.4377 66.3206C21.4307 66.4279 21.5797 67.8705 22.7702 66.8553C24.0732 65.7442 25.9008 64.5126 27.5912 64.896C30.2432 65.4977 53.1864 69.701 56.351 68.9654C60.8783 67.913 73.6941 60.318 76.1513 57.9573C79.9599 54.2975 76.9993 50.4338 73.8091 52.1945Z" fill="#2DBE60"/>
<path d="M16.3622 45.4079L4.34288 44.8156C3.41492 44.7699 2.46717 45.4692 2.23655 46.369L0.0510734 66.2111C-0.179324 67.1112 0.391833 67.8771 1.32024 67.913L14.6406 67.9116C15.5692 67.9475 16.3866 67.2189 16.4579 66.2925L17.9207 47.1752C17.9915 46.249 17.2902 45.4536 16.3622 45.4079ZM9.28631 65.283C7.45082 65.283 5.96313 63.795 5.96313 61.9598C5.96313 60.1243 7.45104 58.6366 9.28631 58.6366C11.1216 58.6366 12.6095 60.1245 12.6095 61.9598C12.6095 63.7953 11.1218 65.283 9.28631 65.283Z" fill="#2DBE60"/>
</svg>
