<svg width="66" height="70" viewBox="0 0 66 70" fill="none" xmlns="http://www.w3.org/2000/svg">
<path d="M65.9877 35.9485L65.9766 35.9489V35.1714C65.9766 32.0882 63.3149 29.5886 60.0318 29.5886C56.7487 29.5886 54.087 32.0882 54.087 35.1714V29.0304C54.087 25.9472 51.4253 23.4476 48.1422 23.4476C44.8591 23.4476 42.1974 25.9472 42.1974 29.0304V23.4476C42.1974 20.3644 39.3375 17.8648 36.0544 17.8648C32.7713 17.8648 29.9257 20.5505 29.9257 23.6337L29.9114 5.58276C29.9114 2.49959 27.2497 0 23.9666 0C20.6835 0 18.0218 2.49959 18.0218 5.58276V41.7777C18.0218 41.7777 11.9399 24.6263 3.38289 28.7125C0.391462 30.141 -0.859723 33.5312 0.627273 36.3572L11.689 57.3796C11.689 57.3796 18.5263 70 30.4504 70H46.3032C57.2473 70 66 61.6683 66 51.3908L65.9877 35.9485Z" fill="#2DBE60"/>
</svg>
