<svg width="90" height="66" viewBox="0 0 90 66" fill="none" xmlns="http://www.w3.org/2000/svg">
<path d="M27.6274 7.10446H55.2643C55.9906 7.10446 56.5791 6.48667 56.5791 5.72455C56.5791 4.96243 55.9906 4.34464 55.2643 4.34464H27.6274C26.9012 4.34464 26.3125 4.96243 26.3125 5.72455C26.3125 6.48667 26.9012 7.10446 27.6274 7.10446Z" fill="#2DBE60"/>
<path d="M2.9106 20.5964H30.5474C31.2736 20.5964 31.8623 19.9786 31.8623 19.2165C31.8623 18.4544 31.2736 17.8368 30.5474 17.8368H2.9106C2.18439 17.8368 1.5957 18.4544 1.5957 19.2165C1.5957 19.9786 2.18439 20.5964 2.9106 20.5964Z" fill="#2DBE60"/>
<path d="M10.3311 34.7938C10.3311 35.5559 10.9197 36.1739 11.646 36.1739H39.2827C40.0089 36.1739 40.5976 35.5559 40.5976 34.7938C40.5976 34.0317 40.0089 33.4141 39.2827 33.4141H11.646C10.9197 33.4141 10.3311 34.0317 10.3311 34.7938Z" fill="#2DBE60"/>
<path d="M26.1467 50.8313H1.3149C0.588684 50.8313 0 51.4489 0 52.211C0 52.9731 0.588684 53.5909 1.3149 53.5909H26.1467C26.8729 53.5909 27.4616 52.9731 27.4616 52.211C27.4616 51.4489 26.8729 50.8313 26.1467 50.8313Z" fill="#2DBE60"/>
<path d="M70.8275 15.756C74.7937 15.756 78.0091 12.3813 78.0091 8.21885C78.0091 4.05638 74.7935 0.681854 70.8275 0.681854C66.8604 0.681854 63.6445 4.05657 63.6445 8.21885C63.6443 12.3813 66.8603 15.756 70.8275 15.756Z" fill="#2DBE60"/>
<path d="M82.6412 13.5857C78.5173 19.6478 72.9951 20.3498 67.0528 16.6477C66.6483 16.396 64.8536 15.3583 64.4563 15.1105C54.8969 9.15498 45.3486 11.4905 38.9453 20.9011C36.2242 24.9036 42.5176 28.6974 45.2082 24.7415C48.5166 19.8794 52.7235 18.4725 57.3245 20.0125C54.9687 24.3039 52.909 28.5693 50.0027 34.6293C47.0956 40.6892 40.6772 45.5286 34.51 41.7437C30.0599 39.0141 26.0469 45.7231 30.4835 48.4442C38.9032 53.6083 48.7755 50.4372 53.8153 43.7244C53.9901 43.8225 54.1749 43.9109 54.3776 43.9853C58.4947 45.4907 63.8916 49.4984 65.5361 50.9188C67.1801 52.3392 70.0047 59.575 71.6821 63.2106C73.7169 67.6221 80.2885 64.409 78.2461 59.9789C76.3447 55.854 73.1532 47.6213 70.6639 45.5385C68.667 43.868 64.7903 40.759 61.5022 38.9952C63.7267 34.4734 66.0429 30.0003 68.4812 25.6044C76.2535 28.1035 83.641 25.1597 88.9025 17.4252C91.6257 13.4232 85.3338 9.6294 82.6412 13.5857Z" fill="#2DBE60"/>
</svg>
