<svg width="57" height="65" viewBox="0 0 57 65" fill="none" xmlns="http://www.w3.org/2000/svg">
<path d="M28.4991 20.1166C21.6699 20.1166 16.1143 25.6723 16.1143 32.501C16.1143 39.3302 21.6699 44.8859 28.4991 44.8859C35.3278 44.8859 40.8835 39.3302 40.8835 32.501C40.8835 25.6723 35.3278 20.1166 28.4991 20.1166ZM35.852 30.1687L26.9797 39.0411C26.6072 39.4135 26.1188 39.6 25.6308 39.6C25.1428 39.6 24.6548 39.414 24.2824 39.0411L20.8919 35.6505C20.147 34.9062 20.147 33.6986 20.8919 32.9538C21.6362 32.2089 22.8438 32.2089 23.5886 32.9538L25.6308 34.9959L33.1552 27.472C33.8996 26.7271 35.1071 26.7271 35.852 27.472C36.5969 28.2163 36.5969 29.4239 35.852 30.1687Z" fill="#2DBE60"/>
<path d="M56.1106 17.636L56.1087 17.5854C56.0804 16.9611 56.0615 16.3005 56.0501 15.5656C55.9971 11.9817 53.1481 9.01712 49.5636 8.81677C42.0903 8.39971 36.309 5.96282 31.3692 1.14803L31.3271 1.10786C29.7159 -0.369451 27.2854 -0.369451 25.6737 1.10786L25.6316 1.14803C20.6918 5.96282 14.9105 8.39971 7.43715 8.81727C3.85321 9.01712 1.00371 11.9817 0.950653 15.5661C0.939742 16.2961 0.920402 16.9566 0.892135 17.5854L0.88916 17.703C0.743858 25.3236 0.563347 34.8079 3.73617 43.4164C5.48078 48.1503 8.12299 52.2654 11.5889 55.648C15.5363 59.5002 20.7067 62.5585 26.9561 64.7375C27.1595 64.8084 27.3707 64.8659 27.5859 64.9091C27.8894 64.9696 28.1949 64.9998 28.5004 64.9998C28.8059 64.9998 29.1119 64.9696 29.4149 64.9091C29.6301 64.8659 29.8428 64.8079 30.0471 64.7365C36.2891 62.5535 41.454 59.4937 45.398 55.642C48.8624 52.2584 51.5046 48.1424 53.2507 43.4074C56.4355 34.7732 56.2554 25.271 56.1106 17.636ZM28.4994 48.6998C19.5671 48.6998 12.3005 41.4332 12.3005 32.5009C12.3005 23.5686 19.5671 16.302 28.4994 16.302C37.4312 16.302 44.6983 23.5686 44.6983 32.5009C44.6983 41.4332 37.4312 48.6998 28.4994 48.6998Z" fill="#2DBE60"/>
</svg>
