<svg width="44" height="50" viewBox="0 0 44 50" fill="none" xmlns="http://www.w3.org/2000/svg">
<path d="M21.9997 15.4743C16.7465 15.4743 12.4729 19.7479 12.4729 25.0008C12.4729 30.254 16.7465 34.5276 21.9997 34.5276C27.2526 34.5276 31.5262 30.254 31.5262 25.0008C31.5262 19.7479 27.2526 15.4743 21.9997 15.4743ZM27.6558 23.2067L20.8309 30.0316C20.5444 30.3181 20.1687 30.4615 19.7933 30.4615C19.4179 30.4615 19.0426 30.3185 18.7561 30.0316L16.148 27.4235C15.575 26.8509 15.575 25.922 16.148 25.349C16.7206 24.7761 17.6494 24.7761 18.2224 25.349L19.7933 26.9199L25.5813 21.1323C26.1539 20.5593 27.0828 20.5593 27.6558 21.1323C28.2287 21.7049 28.2287 22.6337 27.6558 23.2067Z" fill="#4263EB"/>
<path d="M43.2391 13.5662L43.2375 13.5273C43.2158 13.047 43.2013 12.5389 43.1925 11.9735C43.1517 9.21667 40.9602 6.93625 38.2029 6.78214C32.4542 6.46132 28.007 4.58678 24.2072 0.883104L24.1748 0.852205C22.9354 -0.28419 21.0658 -0.28419 19.8261 0.852205L19.7936 0.883104C15.9938 4.58678 11.5467 6.46132 5.79793 6.78252C3.04105 6.93625 0.849133 9.21667 0.808316 11.9739C0.799924 12.5354 0.785047 13.0436 0.763303 13.5273L0.761014 13.6177C0.649244 19.4797 0.510389 26.7753 2.95103 33.3972C4.29303 37.0387 6.3255 40.2041 8.99158 42.8061C12.0281 45.7694 16.0053 48.1219 20.8125 49.7981C20.9689 49.8526 21.1314 49.8969 21.297 49.9301C21.5305 49.9766 21.7654 49.9999 22.0004 49.9999C22.2354 49.9999 22.4708 49.9766 22.7039 49.9301C22.8694 49.8969 23.0331 49.8522 23.1902 49.7973C27.9918 48.1181 31.9648 45.7644 34.9986 42.8016C37.6635 40.1988 39.696 37.0326 41.0391 33.3903C43.4889 26.7486 43.3505 19.4393 43.2391 13.5662ZM21.9997 37.4614C15.1286 37.4614 9.53899 31.8717 9.53899 25.0007C9.53899 18.1297 15.1286 12.54 21.9997 12.54C28.8703 12.54 34.4603 18.1297 34.4603 25.0007C34.4603 31.8717 28.8703 37.4614 21.9997 37.4614Z" fill="#4263EB"/>
</svg>
