<svg width="57" height="36" viewBox="0 0 57 36" fill="none" xmlns="http://www.w3.org/2000/svg">
<path d="M25.05 34.45C20.8833 34.1167 17.5667 33.95 15.1 33.95C13.5667 33.95 12 34 10.4 34.1C8.4 34.1667 6.98333 34.2 6.15 34.2C4.25 34.2 2.75 34.0667 1.65 33.8C0.55 33.5 0 32.8167 0 31.75C0 30.7167 0.566667 29.5 1.7 28.1C2.86667 26.6667 4.95 24.3833 7.95 21.25C10.15 19.05 12.1667 16.95 14 14.95C16.5 12.25 19.05 9.6 21.65 7L20.55 7.1C20.1833 7.13333 19.4833 7.18333 18.45 7.25C17.45 7.31667 16.4833 7.35 15.55 7.35C13.75 7.35 11.8167 7.26667 9.75 7.1C7.68333 6.9 6.1 6.68333 5 6.45C2.73333 5.95 1.6 4.86667 1.6 3.2C1.6 2.23333 1.88333 1.46667 2.45 0.9C3.01667 0.3 3.85 0 4.95 0C5.41667 0 6.51667 0.100001 8.25 0.300002C11.1833 0.666668 13.8 0.850001 16.1 0.850001C17.4333 0.850001 18.8667 0.800001 20.4 0.7C21.9333 0.600001 23.85 0.450001 26.15 0.25C26.7833 0.183334 27.45 0.250001 28.15 0.45C28.85 0.616667 29.45 0.866667 29.95 1.2C30.9833 1.9 31.5 2.85 31.5 4.05C31.5 5.15 30.8333 6.51667 29.5 8.15C28.1667 9.75 26.1 11.95 23.3 14.75L20.55 17.55C18.1167 20.0167 16.35 21.85 15.25 23.05C13.1833 25.2167 11.6 26.8333 10.5 27.9C10.7667 27.8667 11.1333 27.85 11.6 27.85C14.4 27.65 16.5833 27.55 18.15 27.55C19.8167 27.55 21.1667 27.6 22.2 27.7C23.2667 27.7667 24.8167 27.9167 26.85 28.15C27.8833 28.2833 28.6667 28.6167 29.2 29.15C29.7667 29.6833 30.05 30.3833 30.05 31.25C30.05 32.2167 29.7333 33.0167 29.1 33.65C28.5 34.25 27.7667 34.55 26.9 34.55L25.05 34.45Z" fill="#4263EB"/>
<path d="M54.9481 27.3C54.9481 28.4667 55.0481 29.3833 55.2481 30.05C55.4481 30.7167 55.6647 31.25 55.8981 31.65C56.1314 32.05 56.2481 32.2833 56.2481 32.35C56.2481 33.1833 55.9314 33.8833 55.2981 34.45C54.6981 34.9833 53.8814 35.25 52.8481 35.25C52.2147 35.25 51.5147 34.9167 50.7481 34.25C50.0147 33.55 49.5314 32.7833 49.2981 31.95C48.1314 34.1833 45.9481 35.3 42.7481 35.3C39.8147 35.3 37.5314 34.2667 35.8981 32.2C34.2981 30.1333 33.4981 27.5 33.4981 24.3V12.5C33.4981 11.7333 33.8314 11.1167 34.4981 10.65C35.1981 10.15 36.048 9.9 37.048 9.9C38.048 9.9 38.8981 10.15 39.5981 10.65C40.3314 11.1167 40.6981 11.7333 40.6981 12.5V24.2C40.6981 25.6333 40.9481 26.9167 41.4481 28.05C41.9481 29.1833 42.7147 29.75 43.7481 29.75C45.0481 29.75 45.9981 29.1667 46.5981 28C47.2314 26.8333 47.548 24.7833 47.548 21.85V12.6C47.548 11.7 47.8647 10.9833 48.4981 10.45C49.1647 9.91667 50.0314 9.65 51.0981 9.65C52.1981 9.65 53.0814 9.91667 53.7481 10.45C54.4481 10.9833 54.7981 11.7 54.7981 12.6L54.9481 27.3Z" fill="#4263EB"/>
</svg>
